<?xml version="1.0" standalone="no"?>
<!DOCTYPE svg PUBLIC "-//W3C//DTD SVG 20010904//EN"
 "http://www.w3.org/TR/2001/REC-SVG-20010904/DTD/svg10.dtd">
<svg version="1.0" xmlns="http://www.w3.org/2000/svg"
 width="700.000000pt" height="700.000000pt" viewBox="0 0 700.000000 700.000000"
 preserveAspectRatio="xMidYMid meet">
<metadata>
Created by potrace 1.14, written by Peter Selinger 2001-2017
</metadata>
<g transform="translate(0.000000,700.000000) scale(0.100000,-0.100000)"
fill="#000000" stroke="none">
<path d="M2010 5908 l0 -1092 93 91 c240 239 532 410 859 504 85 25 126 34
241 53 118 20 369 26 497 13 375 -41 747 -193 1040 -426 61 -48 57 -44 159
-146 l91 -89 0 1092 0 1092 -1490 0 -1490 0 0 -1092z"/>
<path d="M3329 5266 c-2 -2 -31 -7 -64 -11 -163 -18 -357 -77 -530 -160 -540
-260 -898 -751 -990 -1354 -22 -143 -17 -395 10 -554 36 -205 140 -470 249
-631 25 -38 46 -71 46 -73 0 -2 31 -43 70 -91 193 -241 459 -434 750 -547 25
-10 54 -21 65 -25 38 -15 130 -40 170 -46 22 -3 44 -8 48 -11 24 -15 210 -31
347 -31 223 0 359 21 561 88 567 188 1009 664 1154 1244 45 181 54 264 50 466
-4 196 -5 213 -36 355 -100 458 -424 906 -824 1137 -299 172 -570 246 -911
247 -89 0 -163 -2 -165 -3z m316 -460 c377 -40 736 -259 947 -580 53 -80 128
-222 128 -244 0 -4 6 -19 14 -34 13 -25 43 -133 52 -188 3 -14 7 -32 10 -39
22 -64 22 -323 -1 -441 -20 -106 -31 -147 -62 -230 -72 -191 -163 -332 -312
-480 -219 -217 -454 -332 -769 -376 -51 -7 -269 -7 -312 0 -131 23 -253 54
-315 81 -189 81 -317 166 -451 299 -161 162 -276 354 -335 561 -19 67 -23 81
-34 143 -48 256 -8 540 113 792 88 186 278 406 447 518 190 126 408 203 615
219 41 3 76 6 77 8 4 3 133 -3 188 -9z"/>
<path d="M3135 4040 c-99 -22 -175 -112 -177 -208 -3 -94 13 -122 148 -260
186 -188 167 -164 144 -192 -10 -14 -87 -113 -170 -220 -83 -107 -163 -210
-178 -228 -95 -117 -95 -239 -1 -334 72 -72 165 -88 255 -43 59 29 46 15 341
395 308 398 287 365 290 464 1 62 -3 91 -17 121 -12 25 -103 123 -247 266
-198 197 -233 227 -268 234 -58 12 -86 13 -120 5z"/>
<path d="M2010 1092 l0 -1092 1490 0 1490 0 0 1092 0 1092 -107 -106 c-227
-221 -477 -370 -804 -477 -36 -12 -75 -24 -87 -26 -12 -3 -31 -7 -43 -10 -11
-2 -28 -6 -37 -9 -9 -3 -37 -8 -62 -11 -25 -3 -52 -8 -60 -10 -78 -20 -369
-25 -509 -8 -198 24 -402 76 -536 138 -16 8 -56 25 -88 39 -76 33 -232 125
-332 197 -93 66 -99 72 -222 193 l-93 91 0 -1093z"/>
</g>
</svg>
